<svg width="269" height="30" viewBox="0 0 269 30" fill="none" xmlns="http://www.w3.org/2000/svg">
<rect width="269" height="30" rx="5" fill="url(#paint0_linear)"/>
<path d="M10.1553 21V11.0469H12.9648C13.8307 11.0469 14.5964 11.2383 15.2617 11.6211C15.9271 12.0039 16.4398 12.5485 16.7998 13.2549C17.1644 13.9613 17.349 14.7725 17.3535 15.6885V16.3242C17.3535 17.263 17.1712 18.0856 16.8066 18.792C16.4466 19.4984 15.9294 20.0407 15.2549 20.4189C14.585 20.7972 13.8034 20.9909 12.9102 21H10.1553ZM11.4678 12.127V19.9268H12.8486C13.8604 19.9268 14.6465 19.6123 15.207 18.9834C15.7721 18.3545 16.0547 17.459 16.0547 16.2969V15.7158C16.0547 14.5856 15.7881 13.7083 15.2549 13.084C14.7262 12.4551 13.9743 12.1361 12.999 12.127H11.4678ZM22.2139 21.1367C21.2113 21.1367 20.3955 20.8086 19.7666 20.1523C19.1377 19.4915 18.8232 18.6097 18.8232 17.5068V17.2744C18.8232 16.5407 18.9622 15.8867 19.2402 15.3125C19.5228 14.7337 19.9147 14.2826 20.416 13.959C20.9219 13.6309 21.4688 13.4668 22.0566 13.4668C23.0182 13.4668 23.7656 13.7835 24.2988 14.417C24.832 15.0505 25.0986 15.9574 25.0986 17.1377V17.6641H20.0879C20.1061 18.3932 20.318 18.9834 20.7236 19.4346C21.1338 19.8812 21.6533 20.1045 22.2822 20.1045C22.7288 20.1045 23.1071 20.0133 23.417 19.8311C23.7269 19.6488 23.998 19.4072 24.2305 19.1064L25.0029 19.708C24.3831 20.6605 23.4535 21.1367 22.2139 21.1367ZM22.0566 14.5059C21.5462 14.5059 21.1178 14.6927 20.7715 15.0664C20.4251 15.4355 20.2109 15.9551 20.1289 16.625H23.834V16.5293C23.7975 15.8867 23.6243 15.39 23.3145 15.0391C23.0046 14.6836 22.5853 14.5059 22.0566 14.5059ZM32.8164 17.3838C32.8164 18.5094 32.5589 19.4163 32.0439 20.1045C31.529 20.7926 30.8317 21.1367 29.9521 21.1367C29.0544 21.1367 28.348 20.8519 27.833 20.2822V23.8438H26.5684V13.6035H27.7236L27.7852 14.4238C28.3001 13.7858 29.0156 13.4668 29.9316 13.4668C30.8203 13.4668 31.5221 13.8018 32.0371 14.4717C32.5566 15.1416 32.8164 16.0736 32.8164 17.2676V17.3838ZM31.5518 17.2402C31.5518 16.4062 31.374 15.7477 31.0186 15.2646C30.6631 14.7816 30.1755 14.54 29.5557 14.54C28.79 14.54 28.2158 14.8796 27.833 15.5586V19.0928C28.2113 19.7673 28.79 20.1045 29.5693 20.1045C30.1755 20.1045 30.6562 19.8652 31.0117 19.3867C31.3717 18.9036 31.5518 18.1882 31.5518 17.2402ZM35.8037 21H34.5391V10.5H35.8037V21ZM37.499 17.2334C37.499 16.5088 37.6403 15.8571 37.9229 15.2783C38.21 14.6995 38.6064 14.2529 39.1123 13.9385C39.6227 13.624 40.2038 13.4668 40.8555 13.4668C41.8626 13.4668 42.6761 13.8154 43.2959 14.5127C43.9202 15.21 44.2324 16.1374 44.2324 17.2949V17.3838C44.2324 18.1038 44.0934 18.751 43.8154 19.3252C43.542 19.8949 43.1478 20.3392 42.6328 20.6582C42.1224 20.9772 41.5345 21.1367 40.8691 21.1367C39.8665 21.1367 39.0531 20.7881 38.4287 20.0908C37.8089 19.3936 37.499 18.4707 37.499 17.3223V17.2334ZM38.7705 17.3838C38.7705 18.2041 38.9596 18.8626 39.3379 19.3594C39.7207 19.8561 40.2311 20.1045 40.8691 20.1045C41.5117 20.1045 42.0221 19.8538 42.4004 19.3525C42.7786 18.8467 42.9678 18.1403 42.9678 17.2334C42.9678 16.4222 42.7741 15.766 42.3867 15.2646C42.0039 14.7588 41.4935 14.5059 40.8555 14.5059C40.2311 14.5059 39.7275 14.7542 39.3447 15.251C38.9619 15.7477 38.7705 16.4587 38.7705 17.3838ZM48.1289 19.1475L49.8516 13.6035H51.2051L48.2314 22.1416C47.7712 23.3721 47.0397 23.9873 46.0371 23.9873L45.7979 23.9668L45.3262 23.8779V22.8525L45.668 22.8799C46.0964 22.8799 46.429 22.7933 46.666 22.6201C46.9076 22.4469 47.1058 22.1302 47.2607 21.6699L47.541 20.918L44.9023 13.6035H46.2832L48.1289 19.1475ZM57.5283 11.8125V13.6035H58.9092V14.5811H57.5283V19.168C57.5283 19.4642 57.5898 19.6875 57.7129 19.8379C57.8359 19.9837 58.0456 20.0566 58.3418 20.0566C58.4876 20.0566 58.6882 20.0293 58.9434 19.9746V21C58.6107 21.0911 58.2871 21.1367 57.9727 21.1367C57.4076 21.1367 56.9814 20.9658 56.6943 20.624C56.4072 20.2822 56.2637 19.7969 56.2637 19.168V14.5811H54.917V13.6035H56.2637V11.8125H57.5283ZM59.9209 17.2334C59.9209 16.5088 60.0622 15.8571 60.3447 15.2783C60.6318 14.6995 61.0283 14.2529 61.5342 13.9385C62.0446 13.624 62.6257 13.4668 63.2773 13.4668C64.2845 13.4668 65.098 13.8154 65.7178 14.5127C66.3421 15.21 66.6543 16.1374 66.6543 17.2949V17.3838C66.6543 18.1038 66.5153 18.751 66.2373 19.3252C65.9639 19.8949 65.5697 20.3392 65.0547 20.6582C64.5443 20.9772 63.9564 21.1367 63.291 21.1367C62.2884 21.1367 61.4749 20.7881 60.8506 20.0908C60.2308 19.3936 59.9209 18.4707 59.9209 17.3223V17.2334ZM61.1924 17.3838C61.1924 18.2041 61.3815 18.8626 61.7598 19.3594C62.1426 19.8561 62.653 20.1045 63.291 20.1045C63.9336 20.1045 64.444 19.8538 64.8223 19.3525C65.2005 18.8467 65.3896 18.1403 65.3896 17.2334C65.3896 16.4222 65.196 15.766 64.8086 15.2646C64.4258 14.7588 63.9154 14.5059 63.2773 14.5059C62.653 14.5059 62.1494 14.7542 61.7666 15.251C61.3838 15.7477 61.1924 16.4587 61.1924 17.3838Z" fill="white"/>
<path fill-rule="evenodd" clip-rule="evenodd" d="M106.055 12.254L106.122 13.3855C106.888 12.5104 107.893 12.0728 109.137 12.0728C111.294 12.0728 112.391 13.2403 112.429 15.5753V22.045H110.104V15.702C110.104 15.0806 109.963 14.6209 109.679 14.3219C109.395 14.0233 108.931 13.874 108.286 13.874C107.348 13.874 106.649 14.2755 106.19 15.0775V22.045H103.865V12.254H106.056H106.055ZM119.359 22.2262C117.885 22.2262 116.69 21.7876 115.775 20.9099C114.859 20.0322 114.402 18.8632 114.402 17.4033V17.132C114.402 16.155 114.601 15.2814 115 14.5123C115.398 13.7432 115.958 13.1446 116.679 12.7158C117.4 12.288 118.204 12.0738 119.092 12.0738C120.501 12.0738 121.591 12.499 122.359 13.3494C123.129 14.2004 123.513 15.4034 123.513 16.9601V17.847H116.746C116.817 18.6552 117.102 19.2946 117.603 19.7651C118.104 20.2356 118.734 20.4708 119.493 20.4708C120.558 20.4708 121.426 20.0641 122.096 19.2493L123.35 20.3807C122.935 20.9655 122.382 21.4195 121.69 21.7423C120.997 22.0651 120.221 22.2262 119.359 22.2262H119.359ZM119.082 13.8385C118.443 13.8385 117.929 14.0495 117.536 14.4717C117.143 14.8938 116.893 15.4822 116.785 16.2363H121.216V16.0731C121.165 15.337 120.957 14.781 120.594 14.4037C120.23 14.0269 119.726 13.8385 119.082 13.8385V13.8385ZM128.231 9.87473V12.2545H130.059V13.8833H128.231V19.3486C128.231 19.7223 128.309 19.9921 128.465 20.1584C128.622 20.3241 128.901 20.407 129.303 20.407C129.577 20.4063 129.85 20.3759 130.116 20.3164V22.0177C129.587 22.1567 129.077 22.2257 128.585 22.2257C126.799 22.2257 125.905 21.2939 125.905 19.4299V13.8828H124.201V12.254H125.904V9.87421H128.23L128.231 9.87473ZM134.309 22.0455H131.983V8.14664H134.309V22.0455ZM139.314 22.0455H136.988V12.2545H139.314V22.0455ZM136.845 9.71155C136.845 9.37437 136.958 9.09382 137.184 8.87041C137.411 8.64751 137.735 8.5358 138.155 8.5358C138.577 8.5358 138.902 8.64751 139.132 8.87041C139.362 9.09382 139.476 9.37437 139.476 9.71206C139.476 10.0436 139.362 10.3195 139.132 10.5398C138.902 10.7601 138.577 10.8703 138.155 10.8703C137.735 10.8703 137.411 10.7601 137.184 10.5398C136.958 10.32 136.845 10.0436 136.845 9.71206V9.71155ZM142.664 22.0455V13.8828H141.084V12.254H142.664V11.3583C142.664 10.2721 142.982 9.43408 143.62 8.84261C144.259 8.25165 145.152 7.95617 146.3 7.95617C146.709 7.95617 147.143 8.01022 147.602 8.11884L147.545 9.83818C147.251 9.7868 146.953 9.76266 146.655 9.76611C145.544 9.76611 144.989 10.3056 144.989 11.3856V12.254H147.094V13.8828H144.989V22.045H142.664V22.0455ZM152.416 18.8966L154.521 12.2545H157L152.885 23.5296C152.253 25.1764 151.181 26 149.669 26C149.331 26 148.958 25.9454 148.549 25.8368V24.1355L148.99 24.1628C149.576 24.1628 150.018 24.0619 150.315 23.8596C150.612 23.6578 150.846 23.3185 151.019 22.8419L151.353 22.0002L147.717 12.2545H150.224L152.416 18.8966Z" fill="url(#paint1_radial)"/>
<path d="M92.1483 12.8496L92.1407 12.8465C92.1363 12.845 92.132 12.8434 92.1281 12.8398C92.1219 12.8335 92.1172 12.8259 92.1146 12.8176C92.112 12.8093 92.1114 12.8005 92.1129 12.792L92.5347 10.3591L94.513 12.2257L92.4556 13.0514C92.4499 13.0536 92.4437 13.0546 92.4376 13.0545H92.4294C92.4267 13.0529 92.4239 13.0509 92.4185 13.0457C92.3419 12.9653 92.2503 12.8988 92.1483 12.8496V12.8496ZM95.0178 12.7014L97.133 14.6966C97.5723 15.1115 97.7923 15.3185 97.8725 15.5583C97.8845 15.5939 97.8943 15.6294 97.902 15.6659L92.8469 13.6465C92.8442 13.6454 92.8414 13.6444 92.8387 13.6434C92.8185 13.6357 92.795 13.6269 92.795 13.6074C92.795 13.5878 92.819 13.5785 92.8392 13.5708L92.8458 13.5682L95.0178 12.7014ZM97.8157 16.3063C97.7066 16.4999 97.4937 16.7006 97.1336 17.0409L94.7487 19.2899L91.6643 18.684L91.6479 18.681C91.6206 18.6768 91.5917 18.6722 91.5917 18.649C91.58 18.529 91.5422 18.4126 91.4807 18.3069C91.4192 18.2012 91.3353 18.1087 91.2342 18.0349C91.2217 18.0231 91.225 18.0045 91.2288 17.9876C91.2288 17.985 91.2288 17.9824 91.2299 17.9804L91.81 14.6209L91.8122 14.6096C91.8154 14.5839 91.8204 14.554 91.8449 14.554C91.9692 14.5394 92.0892 14.5017 92.1979 14.4429C92.3066 14.3841 92.4018 14.3055 92.478 14.2117C92.4829 14.2065 92.4861 14.2009 92.4927 14.1978C92.5102 14.1901 92.5309 14.1978 92.5489 14.205L97.8152 16.3063H97.8157ZM94.2003 19.8073L90.2787 23.5064L90.9499 19.6148L90.951 19.6096C90.9516 19.6045 90.9526 19.5993 90.9543 19.5947C90.9597 19.5823 90.9739 19.5772 90.9876 19.572L90.9941 19.5695C91.1411 19.5103 91.2711 19.4191 91.3734 19.3033C91.3865 19.2889 91.4023 19.275 91.4225 19.2724C91.4278 19.2716 91.4331 19.2716 91.4383 19.2724L94.1997 19.8078L94.2003 19.8073ZM89.4486 24.2894L89.0066 24.7064L84.1196 18.0442C84.1178 18.0417 84.116 18.0393 84.1141 18.037C84.1065 18.0272 84.0983 18.0174 84.0999 18.0061C84.0999 17.9979 84.1059 17.9906 84.1119 17.9845L84.1174 17.9778C84.1321 17.9572 84.1447 17.9366 84.1583 17.9145L84.1692 17.8964L84.1709 17.8949C84.1785 17.8825 84.1856 17.8707 84.1987 17.864C84.2102 17.8589 84.226 17.8609 84.2385 17.8635L89.6527 18.9167C89.6679 18.9189 89.6821 18.9248 89.6942 18.9337C89.7013 18.9404 89.7029 18.9476 89.7046 18.9558C89.7423 19.0906 89.8126 19.2154 89.9099 19.3203C90.0073 19.4252 90.129 19.5075 90.2656 19.5607C90.2809 19.5679 90.2743 19.5839 90.2672 19.6009C90.2637 19.6083 90.2609 19.6161 90.259 19.624C90.1908 20.0153 89.6058 23.3808 89.4486 24.2894ZM88.5252 25.1599C88.1994 25.4641 88.0073 25.6252 87.7901 25.6901C87.576 25.754 87.3462 25.754 87.132 25.6901C86.8777 25.6139 86.6578 25.407 86.2184 24.9921L81.3107 20.3627L82.5926 18.4874C82.5986 18.4781 82.6046 18.4699 82.6145 18.4632C82.6281 18.4539 82.6477 18.4581 82.6641 18.4632C82.9584 18.5469 83.2743 18.5318 83.558 18.4205C83.5728 18.4153 83.5875 18.4117 83.599 18.4215C83.6047 18.4264 83.6098 18.432 83.6142 18.438L88.5252 25.1604V25.1599ZM80.8376 19.9164L79.7117 18.8544L81.935 17.9598C81.9407 17.9574 81.9468 17.9562 81.953 17.9562C81.9716 17.9562 81.9825 17.9737 81.9923 17.9896C82.0147 18.022 82.0383 18.0536 82.0633 18.0843L82.0704 18.0926C82.0769 18.1013 82.0725 18.1101 82.066 18.1183L80.8381 19.9164H80.8376ZM79.2135 18.3844L77.7891 17.0409C77.5468 16.8123 77.3711 16.6466 77.2489 16.504L81.5798 17.3513C81.5852 17.3522 81.5907 17.3531 81.5961 17.3539C81.6229 17.358 81.6523 17.3626 81.6523 17.3863C81.6523 17.412 81.6201 17.4239 81.5929 17.4337L81.5803 17.4388L79.2135 18.3844ZM77 15.8132C77.0049 15.7266 77.0214 15.641 77.0491 15.5583C77.1299 15.3185 77.3493 15.1115 77.7891 14.6966L79.6119 12.9773C80.4511 14.1262 81.2926 15.2736 82.1364 16.4196C82.1511 16.4381 82.1675 16.4587 82.1506 16.4741C82.0709 16.557 81.9912 16.6476 81.935 16.7459C81.9289 16.7586 81.9195 16.7695 81.9077 16.7778C81.9006 16.782 81.893 16.7804 81.8848 16.7789H81.8837L77 15.8126V15.8132ZM80.0997 12.5171L82.5495 10.2052C82.7804 10.3004 83.6191 10.6345 84.3684 10.9331C84.936 11.1596 85.4533 11.3655 85.616 11.4324C85.6323 11.4386 85.6471 11.4448 85.6542 11.4602C85.6585 11.4695 85.6563 11.4813 85.6542 11.4911C85.6154 11.658 85.6211 11.8314 85.671 11.9956C85.7208 12.1599 85.8131 12.3099 85.9396 12.4321C85.956 12.4476 85.9396 12.4697 85.9254 12.4888L85.9178 12.4996L83.4292 16.1354C83.4227 16.1457 83.4167 16.1545 83.4058 16.1611C83.3927 16.1689 83.3741 16.1653 83.3588 16.1617C83.262 16.1377 83.1625 16.1249 83.0625 16.1236C82.973 16.1236 82.8759 16.139 82.7776 16.156H82.7771C82.7662 16.1575 82.7563 16.1596 82.7476 16.1534C82.738 16.146 82.7297 16.1371 82.7231 16.1272L80.0992 12.5171H80.0997ZM83.0456 9.73832L86.2184 6.74543C86.6578 6.33103 86.8777 6.12358 87.132 6.04791C87.3462 5.98403 87.576 5.98403 87.7901 6.04791C88.0445 6.12358 88.2644 6.33103 88.7037 6.74543L89.3913 7.39404L87.1347 10.6906C87.1291 10.7002 87.1215 10.7087 87.1124 10.7154C87.0987 10.7241 87.0796 10.7205 87.0632 10.7154C86.8853 10.6644 86.6969 10.6552 86.5144 10.6883C86.3318 10.7215 86.1605 10.7962 86.0154 10.9058C86.0007 10.9202 85.9789 10.912 85.9603 10.9043C85.6656 10.7833 83.3736 9.86958 83.0456 9.73832V9.73832ZM89.8705 7.84601L91.9541 9.81142L91.452 12.7446V12.7523C91.4515 12.759 91.4501 12.7656 91.4476 12.7719C91.4422 12.7822 91.4312 12.7842 91.4203 12.7873C91.313 12.818 91.2119 12.8655 91.1213 12.9279C91.1174 12.9305 91.1137 12.9334 91.1104 12.9366C91.1044 12.9428 91.0984 12.9484 91.0885 12.9495C91.0805 12.9497 91.0726 12.9485 91.0651 12.9459L87.89 11.6734L87.884 11.6708C87.8638 11.6631 87.8398 11.6538 87.8398 11.6342C87.8211 11.4673 87.7634 11.3064 87.6706 11.1632C87.6554 11.1395 87.6384 11.1148 87.6515 11.0906L89.8705 7.84601ZM87.7247 12.2761L90.7011 13.4653C90.7174 13.4725 90.7354 13.4792 90.7425 13.4951C90.7454 13.5047 90.7454 13.5149 90.7425 13.5245C90.7338 13.5657 90.7262 13.6125 90.7262 13.6599V13.7386C90.7262 13.7582 90.7049 13.7664 90.6852 13.7741L90.6792 13.7762C90.2077 13.9661 84.0595 16.4391 84.0503 16.4391C84.041 16.4391 84.0312 16.4391 84.0219 16.4304C84.0055 16.4149 84.0219 16.3933 84.0366 16.3737C84.0392 16.3704 84.0418 16.3669 84.0443 16.3634L86.4902 12.7909L86.4946 12.7847C86.5088 12.7631 86.5251 12.7389 86.5513 12.7389L86.5759 12.7425C86.6316 12.7497 86.6807 12.7564 86.7303 12.7564C87.1014 12.7564 87.4452 12.586 87.6526 12.2947C87.6576 12.2869 87.6638 12.2799 87.6712 12.2741C87.6859 12.2638 87.7077 12.2689 87.7247 12.2761V12.2761ZM84.316 17.0043L91.0176 14.3085C91.0176 14.3085 91.0274 14.3085 91.0367 14.3172C91.0733 14.3517 91.1044 14.3749 91.1344 14.3965L91.1491 14.4053C91.1628 14.4125 91.1764 14.4207 91.1775 14.4341C91.1775 14.4392 91.1775 14.4423 91.1764 14.4469L90.6023 17.7734L90.6001 17.7868C90.5963 17.8125 90.5925 17.8419 90.5668 17.8419C90.4138 17.8516 90.2655 17.8964 90.135 17.9724C90.0044 18.0484 89.8954 18.1532 89.8175 18.2779L89.8148 18.282C89.8072 18.2938 89.8001 18.3052 89.7875 18.3114C89.7761 18.3165 89.7613 18.3144 89.7493 18.3119L84.405 17.272C84.3995 17.271 84.322 17.0049 84.316 17.0043V17.0043Z" fill="url(#paint2_radial)"/>
<path d="M206.211 14.2992C208.181 13.8383 211.407 11.1423 210.693 9.89805C214.034 9.02244 217.174 5.05915 216.917 4.48309C216.061 2.50144 209.551 7.10992 207.21 9.39112C206.724 10.0824 205.069 12.2714 205.069 12.2714L206.753 9.16069C206.753 9.16069 199.986 2.1558 197.074 4.78264C194.876 6.76428 199.187 9.22982 200.015 9.50633C199.301 9.99022 197.16 13.9766 202.242 14.2992C203.384 14.3683 204.583 13.677 204.583 13.677C204.583 13.677 204.269 14.76 206.211 14.2992Z" fill="white"/>
<path d="M198.159 13.4235C197.817 13.9766 197.645 14.5757 197.645 15.2439V22.6635C197.645 23.3779 198.359 23.9539 199.244 23.9539H199.558C200.443 23.9539 201.157 23.3779 201.157 22.6635V15.29C199.358 14.9213 198.53 14.0918 198.159 13.4235Z" fill="white"/>
<path d="M206.353 23.9309C207.296 23.9309 208.066 23.3087 208.066 22.5483V15.0595C207.667 15.2208 207.296 15.3591 206.924 15.4513C206.468 15.5434 206.068 15.6126 205.697 15.6126C205.24 15.6126 204.897 15.5434 204.612 15.4282V22.5714C204.612 23.3318 205.383 23.9309 206.353 23.9309Z" fill="white"/>
<path d="M194.59 10.1054C195.532 10.1054 196.303 9.48329 196.332 8.72289C196.332 7.96249 195.561 7.34035 194.59 7.34035C193.648 7.34035 192.877 7.96249 192.849 8.72289C192.849 9.48329 193.62 10.1054 194.59 10.1054Z" fill="white"/>
<path d="M233.934 23.9539C235.333 23.9539 236.532 23.5392 237.56 22.7327C238.559 21.9262 239.073 20.9814 239.073 19.8754L239.016 19.8293H236.275C235.961 19.8293 235.675 19.9906 235.561 20.2441C235.475 20.4515 235.333 20.6358 235.133 20.7971C234.79 21.0506 234.39 21.1888 233.905 21.1888C233.42 21.1888 233.02 21.0506 232.706 20.7971C232.392 20.5436 232.221 20.221 232.221 19.8293V19.3915C232.221 19.3685 232.249 19.3454 232.278 19.3454H233.905C235.304 19.3454 236.503 18.9307 237.531 18.1242C238.559 17.3177 239.044 16.3499 239.044 15.1978C239.044 14.0687 238.53 13.0779 237.531 12.2714C236.503 11.4649 235.304 11.0502 233.905 11.0502C232.506 11.0502 231.307 11.4649 230.308 12.2714C229.308 13.0779 228.794 14.0457 228.794 15.1978V19.8063C228.794 20.9354 229.308 21.9031 230.308 22.7327C231.335 23.5392 232.535 23.9539 233.934 23.9539ZM232.249 15.2208C232.249 14.8291 232.42 14.5065 232.734 14.23C233.02 13.9766 233.391 13.8613 233.819 13.8383C234.305 13.8153 234.819 13.9535 235.19 14.2531C235.504 14.5065 235.675 14.8291 235.675 15.1978C235.675 15.5895 235.475 15.9812 235.104 16.2578C234.79 16.5112 234.39 16.6264 233.934 16.6264H232.306C232.278 16.6264 232.249 16.6034 232.249 16.5803V15.2208V15.2208Z" fill="white"/>
<path d="M194.562 11.0502C193.62 11.0502 192.849 11.6723 192.849 12.4327V22.5483C192.849 23.3087 193.62 23.9309 194.562 23.9309H194.59C195.532 23.9309 196.303 23.3087 196.303 22.5483V12.4327C196.303 11.6723 195.532 11.0502 194.562 11.0502Z" fill="white"/>
<path d="M259.458 12.2714C258.459 11.4649 257.26 11.0502 255.861 11.0502C254.462 11.0502 253.263 11.4649 252.235 12.2714C251.236 13.0549 250.722 14.0226 250.722 15.1287C250.75 15.1517 250.779 15.1748 250.807 15.1978H253.491C253.805 15.1978 254.119 14.9904 254.233 14.76C254.319 14.5757 254.462 14.3913 254.662 14.23C255.004 13.9766 255.404 13.8383 255.889 13.8383C256.375 13.8383 256.774 13.9766 257.089 14.23C257.403 14.4835 257.574 14.8061 257.574 15.1978V15.6356C257.574 15.6587 257.545 15.7047 257.488 15.7047H255.176C253.777 15.7047 252.577 16.1195 251.55 16.926C250.522 17.7325 250.036 18.7002 250.036 19.8524C250.036 20.9814 250.55 21.9723 251.55 22.7788C252.577 23.5852 253.777 24 255.176 24C256.004 24 257.374 23.9078 257.888 23.47H257.916C258.088 23.7004 258.602 23.977 259.287 23.977C260.229 23.977 261 23.2857 261 22.5253V20.1058C261 20.0367 261 19.9445 261 19.8754V15.1978C260.971 14.0457 260.458 13.0779 259.458 12.2714ZM257.545 19.8063C257.545 20.198 257.374 20.5206 257.06 20.7971C256.774 21.0506 256.403 21.1658 255.975 21.1888H255.29C254.804 21.2119 254.291 21.0736 253.919 20.7741C253.605 20.5206 253.434 20.198 253.434 19.8293C253.434 19.4376 253.634 19.0459 254.005 18.7694C254.319 18.5159 254.719 18.4007 255.176 18.4007H257.488C257.517 18.4007 257.574 18.4237 257.574 18.4698V19.8063H257.545Z" fill="white"/>
<path d="M186.253 11.0502C185.368 11.0502 184.597 11.2115 183.855 11.511C183.541 11.3036 183.17 11.1654 182.742 11.1654H182.713C181.771 11.1654 181 11.7875 181 12.5479V15.2208V15.2439V22.6635C181 23.3779 181.714 23.9539 182.599 23.9539H182.913C183.798 23.9539 184.512 23.3779 184.512 22.6635V15.2439C184.512 14.8522 184.683 14.5296 185.026 14.2531C185.368 13.9766 185.797 13.8613 186.282 13.8613C186.767 13.8613 187.167 13.9996 187.51 14.2531C187.852 14.5296 187.995 14.8522 187.995 15.2439V22.6635C187.995 23.3779 188.709 23.9539 189.594 23.9539H189.908C190.793 23.9539 191.478 23.3779 191.478 22.6635V15.2439C191.478 14.0918 190.964 13.1009 189.936 12.2714C188.909 11.4419 187.681 11.0502 186.253 11.0502Z" fill="white"/>
<path d="M242.213 7.77815H242.099C241.186 7.77815 240.472 8.37726 240.472 9.09157V22.6175C240.472 23.3548 241.214 23.9309 242.099 23.9309H242.213C243.127 23.9309 243.841 23.3318 243.841 22.6175V9.09157C243.841 8.37726 243.127 7.77815 242.213 7.77815Z" fill="white"/>
<path d="M227.424 19.5759V15.4282C227.424 14.5065 227.11 13.7 226.482 12.9627C225.425 11.7645 223.627 11.0963 221.799 11.0963H220.515C220.315 11.0963 220.172 10.981 220.172 10.8197V10.0824V10.0593V8.6768C220.172 7.93945 219.43 7.36339 218.545 7.36339H218.43C217.517 7.36339 216.803 7.82424 216.803 8.6768V22.6635C216.803 23.4239 217.545 23.9539 218.43 23.9539H218.545C219.059 23.9539 219.544 23.7465 219.829 23.447C220.515 23.7235 221.286 23.977 222.113 23.977C223.598 23.977 224.854 23.447 225.911 22.5944C226.91 21.7418 227.424 20.751 227.424 19.5759ZM223.884 19.5759C223.884 19.9676 223.712 20.3132 223.37 20.5897C223.027 20.8662 222.599 21.0045 222.113 21.0045C221.628 21.0045 221.2 20.8662 220.857 20.5897C220.515 20.3132 220.343 19.9906 220.343 19.5759V13.9766H222.113C222.599 13.9766 223.027 14.1148 223.37 14.3913C223.712 14.6678 223.884 15.0135 223.884 15.4052V19.5759V19.5759Z" fill="white"/>
<path d="M215.004 15.2439C215.004 14.0918 214.49 13.1009 213.463 12.2714C213.063 11.9488 212.663 11.7184 212.206 11.511C212.178 11.5571 212.178 11.5801 212.149 11.6262C211.721 12.3866 210.95 13.1931 210.036 13.8613C211.236 13.9766 211.493 14.8752 211.493 15.2439V22.6635C211.493 23.3779 212.206 23.9539 213.091 23.9539H213.405C214.291 23.9539 215.004 23.3779 215.004 22.6635V15.2439V15.2439Z" fill="white"/>
<path d="M246.981 7.77815H246.867C245.954 7.77815 245.24 8.37726 245.24 9.09157V22.6175C245.24 23.3548 245.982 23.9309 246.867 23.9309H246.981C247.895 23.9309 248.609 23.3318 248.609 22.6175V9.09157C248.637 8.37726 247.895 7.77815 246.981 7.77815Z" fill="white"/>
<path d="M164.485 19.3203C164.485 18.86 164.613 18.4339 164.868 18.042C165.128 17.6501 165.602 17.2148 166.29 16.7363C165.994 16.3398 165.761 15.9684 165.593 15.6221C165.424 15.2712 165.34 14.9066 165.34 14.5283C165.34 13.7536 165.584 13.1247 166.071 12.6416C166.563 12.154 167.224 11.9102 168.054 11.9102C168.797 11.9102 169.405 12.1312 169.879 12.5732C170.357 13.0153 170.597 13.5667 170.597 14.2275C170.597 15.0205 170.196 15.7201 169.394 16.3262L168.628 16.8799L170.344 18.876C170.613 18.3473 170.747 17.764 170.747 17.126H172.429C172.429 18.4202 172.13 19.4684 171.533 20.2705L173.023 22H170.781L170.269 21.4121C169.535 21.8952 168.692 22.1367 167.739 22.1367C166.755 22.1367 165.966 21.8792 165.374 21.3643C164.782 20.8447 164.485 20.1634 164.485 19.3203ZM167.835 20.5508C168.309 20.5508 168.758 20.4186 169.182 20.1543L167.22 17.8848L167.076 17.9873C166.671 18.3337 166.468 18.7415 166.468 19.2109C166.468 19.6074 166.593 19.931 166.844 20.1816C167.099 20.4277 167.429 20.5508 167.835 20.5508ZM167.11 14.501C167.11 14.8428 167.311 15.2734 167.712 15.793L168.238 15.4443C168.507 15.2712 168.692 15.1025 168.792 14.9385C168.897 14.7744 168.949 14.5785 168.949 14.3506C168.949 14.1227 168.865 13.9245 168.696 13.7559C168.528 13.5872 168.311 13.5029 168.047 13.5029C167.764 13.5029 167.536 13.5941 167.363 13.7764C167.195 13.9587 167.11 14.2002 167.11 14.501Z" fill="white"/>
<defs>
<linearGradient id="paint0_linear" x1="42.9389" y1="-7.17774" x2="48.164" y2="78.5954" gradientUnits="userSpaceOnUse">
<stop stop-color="#20C6B7"/>
<stop offset="1" stop-color="#4D9ABF"/>
</linearGradient>
<radialGradient id="paint1_radial" cx="0" cy="0" r="1" gradientUnits="userSpaceOnUse" gradientTransform="translate(102.081 16.7235) rotate(90) scale(18.024 61.3467)">
<stop stop-color="white"/>
<stop offset="1" stop-color="white"/>
</radialGradient>
<radialGradient id="paint2_radial" cx="0" cy="0" r="1" gradientUnits="userSpaceOnUse" gradientTransform="translate(76.2982 15.5905) rotate(90) scale(19.7163 24.1321)">
<stop stop-color="white"/>
<stop offset="1" stop-color="white"/>
</radialGradient>
</defs>
</svg>
